<svg xmlns="http://www.w3.org/2000/svg" viewBox="0 0 512 512" role="img" aria-label="Lancer bot chassis facing east">
  <defs>
    <linearGradient id="lc-hull" x1="0" y1="0" x2="1" y2="1">
      <stop stop-color="#586675"/>
      <stop offset=".45" stop-color="#2e3947"/>
      <stop offset="1" stop-color="#141d29"/>
    </linearGradient>
    <linearGradient id="lc-spine" x1="0" y1="0" x2="1" y2="0">
      <stop stop-color="#192431"/>
      <stop offset=".5" stop-color="#43505e"/>
      <stop offset="1" stop-color="#151e2b"/>
    </linearGradient>
    <linearGradient id="lc-energy" x1="0" y1="0" x2="1" y2="0">
      <stop stop-color="#087890"/>
      <stop offset=".5" stop-color="#24d7e8"/>
      <stop offset="1" stop-color="#d0fbff"/>
    </linearGradient>
    <radialGradient id="lc-core">
      <stop stop-color="#ecfeff"/>
      <stop offset=".32" stop-color="#50e5f1"/>
      <stop offset=".7" stop-color="#0d8aa1"/>
      <stop offset="1" stop-color="#123344"/>
    </radialGradient>
    <filter id="lc-glow" x="-100%" y="-100%" width="300%" height="300%">
      <feGaussianBlur stdDeviation="6"/>
    </filter>
  </defs>

  <path d="m73 119 52-31 70 8 47 58 42 49 136 21 67 32-67 32-136 21-42 49-47 58-70 8-52-31 15-71-18-66 18-66Z"
    fill="#080e16" stroke="#070b11" stroke-width="14" stroke-linejoin="round"/>

  <g stroke="#0a111a" stroke-linejoin="round">
    <path d="m84 127 45-27 58 7 43 53-34 38-101-16Z" fill="url(#lc-hull)" stroke="#697788" stroke-width="5"/>
    <path d="m84 385 45 27 58-7 43-53-34-38-101 16Z" fill="url(#lc-hull)" stroke="#485665" stroke-width="5"/>
    <path d="m94 187 102 16 64 53-64 53-102 16-30-69Z" fill="#202b38" stroke="#5e6c7b" stroke-width="5"/>

    <path d="m199 201 75 8 146 21 55 26-55 26-146 21-75 8 44-55Z"
      fill="url(#lc-spine)" stroke="#6c7988" stroke-width="5"/>
    <path d="m242 226 177 16 36 14-36 14-177 16-36-30Z"
      fill="#111b27" stroke="#344250" stroke-width="4"/>
    <path d="m290 239 130 9 25 8-25 8-130 9-26-17Z"
      fill="#34414f" stroke="#0b121a" stroke-width="3"/>

    <path d="m116 137 62-18 36 47-29 22-82-13Z" fill="#202b37" stroke="#748191" stroke-width="3"/>
    <path d="m116 375 62 18 36-47-29-22-82 13Z" fill="#19232e" stroke="#4e5c69" stroke-width="3"/>
    <path d="m105 210 75 12 39 34-39 34-75 12-24-46Z" fill="#35414e" stroke="#111923" stroke-width="4"/>
    <path d="m130 226 48 8 25 22-25 22-48 8-12-30Z" fill="#111a25" stroke="#536170" stroke-width="3"/>

    <g fill="#1b2633" stroke="#5f6e7e" stroke-width="4">
      <path d="m69 139 35-26 36 12-7 49-48 7-21-20Z"/>
      <path d="m69 373 35 26 36-12-7-49-48-7-21 20Z"/>
    </g>
    <g fill="#111a25" stroke="#090f17" stroke-width="4">
      <rect x="70" y="135" width="39" height="33" rx="9"/>
      <rect x="70" y="344" width="39" height="33" rx="9"/>
    </g>

    <path d="m183 211 73 45-73 45-51-45Z" fill="#141e2a" stroke="#677585" stroke-width="5"/>
    <circle cx="211" cy="256" r="34" fill="#0c1822" stroke="#0c8297" stroke-width="5"/>
    <circle cx="211" cy="256" r="20" fill="url(#lc-core)" stroke="#a8f6fb" stroke-width="3"/>

    <g fill="url(#lc-energy)" stroke="#064554" stroke-width="3">
      <path d="m173 179 49 27 128 26-103-8-65-21Z"/>
      <path d="m173 333 49-27 128-26-103 8-65 21Z"/>
      <rect x="79" y="140" width="20" height="23" rx="5"/>
      <rect x="79" y="349" width="20" height="23" rx="5"/>
      <path d="m401 249 36 7-36 7Z"/>
    </g>
  </g>

  <g fill="#2bd9e8" opacity=".46" filter="url(#lc-glow)">
    <circle cx="211" cy="256" r="25"/>
    <path d="m173 179 177 53-103-8-65-21Z"/>
    <path d="m173 333 177-53-103 8-65 21Z"/>
  </g>

  <g fill="none" stroke="#929eaa" stroke-linecap="round" opacity=".75">
    <path d="M139 140h30M139 372h30M274 220l42 7M274 292l42-7" stroke-width="3"/>
    <path d="M135 246h25M135 266h25" stroke-width="2"/>
  </g>
  <g fill="#a0acb7">
    <circle cx="128" cy="120" r="3"/>
    <circle cx="128" cy="392" r="3"/>
    <circle cx="238" cy="207" r="3"/>
    <circle cx="238" cy="305" r="3"/>
  </g>
</svg>
