<svg xmlns="http://www.w3.org/2000/svg" viewBox="0 0 512 512" role="img" aria-label="Helio Kite bot chassis facing east">
  <defs>
    <linearGradient id="hk-ivory" x1="0" y1="0" x2="1" y2="1">
      <stop stop-color="#fffbed"/>
      <stop offset=".4" stop-color="#e8dcc0"/>
      <stop offset="1" stop-color="#9d8d70"/>
    </linearGradient>
    <linearGradient id="hk-gold" x1="0" y1="0" x2="1" y2="1">
      <stop stop-color="#fff0a8"/>
      <stop offset=".35" stop-color="#e2a93c"/>
      <stop offset="1" stop-color="#7c4614"/>
    </linearGradient>
    <linearGradient id="hk-glass" x1="0" y1="0" x2="1" y2="1">
      <stop stop-color="#42638a"/>
      <stop offset=".5" stop-color="#1d3559"/>
      <stop offset="1" stop-color="#0b1428"/>
    </linearGradient>
    <radialGradient id="hk-core">
      <stop stop-color="#ffffff"/>
      <stop offset=".26" stop-color="#fef08a"/>
      <stop offset=".6" stop-color="#f59e0b"/>
      <stop offset="1" stop-color="#47230b"/>
    </radialGradient>
  </defs>
  <path d="M45 256 157 61l119 103 88 25 135 67-135 67-88 25-119 103Z"
    fill="#111018" stroke="#08070b" stroke-width="15" stroke-linejoin="round"/>
  <g stroke-linejoin="round">
    <path d="M60 256 163 79l101 96-43 81Z" fill="url(#hk-ivory)" stroke="#b99956" stroke-width="6"/>
    <path d="m60 256 103 177 101-96-43-81Z" fill="#c8b99c" stroke="#8b6d3c" stroke-width="6"/>
    <path d="m104 246 72-126 73 67-39 59Z" fill="url(#hk-glass)" stroke="#6e86a1" stroke-width="5"/>
    <path d="m104 266 72 126 73-67-39-59Z" fill="#172b4c" stroke="#405d7a" stroke-width="5"/>
    <path d="m199 168 79-13 91 40 69 42-123 1-81 27-35-9Z"
      fill="url(#hk-ivory)" stroke="#a98647" stroke-width="5"/>
    <path d="m199 344 79 13 91-40 69-42-123-1-81-27-35 9Z"
      fill="#b9aa8e" stroke="#806537" stroke-width="5"/>
    <path d="m281 194 82 17 119 45-119 45-82 17-45-62Z"
      fill="url(#hk-glass)" stroke="#6a7890" stroke-width="6"/>
    <path d="m355 231 88 13 45 12-45 12-88 13 26-45Z"
      fill="#11192a" stroke="#bd9141" stroke-width="4"/>
    <path d="m421 246 57 4 24 6-24 6-57 4 15-10Z"
      fill="url(#hk-gold)" stroke="#714418" stroke-width="3"/>
    <path d="m150 256 173-7 36 7-36 7Z" fill="url(#hk-gold)" opacity=".86"/>
    <circle cx="249" cy="256" r="72" fill="#11131b" stroke="#b58a3c" stroke-width="8"/>
    <path d="m249 184 51 21 21 51-21 51-51 21-51-21-21-51 21-51Z"
      fill="url(#hk-ivory)" stroke="#7e6438" stroke-width="6"/>
    <circle cx="249" cy="256" r="43" fill="#1a2231" stroke="#dda83e" stroke-width="8"/>
    <circle cx="249" cy="256" r="24" fill="url(#hk-core)" stroke="#fff4b5" stroke-width="4"/>
    <g fill="url(#hk-gold)" stroke="#765021" stroke-width="3">
      <path d="m145 113 27-20 30 29-37 10Z"/><path d="m145 399 27 20 30-29-37-10Z"/>
      <path d="m258 169 26-8 34 11-37 9Z"/><path d="m258 343 26 8 34-11-37-9Z"/>
    </g>
  </g>
  <g fill="none" stroke="#fff6d7" stroke-width="4" stroke-linecap="round" opacity=".62">
    <path d="m119 213 54-91M119 299l54 91M283 179l61 24M283 333l61-24"/>
  </g>
</svg>
